# xmcd
#
# Track frame offsets:
#	150
#	16073
#	32092
#	48788
#	67608
#	83118
#	109705
#	128003
#	152637
#
# Disc length: 2308 seconds
#
# Revision: 0
# Processed by: cddbd v1.4PL0 Copyright (c) Steve Scherf et al.
# Submitted via: EasyCDDAExtractor 5.0.2.1
#
DISCID=5a090209
DTITLE=Damon Fowler Group - Riverview Drive
DYEAR=1900
DGENRE=Blues
TTITLE0=Pocket Full of Blues
TTITLE1=Jig Is Up
TTITLE2=Bye Bye Baby
TTITLE3=I Don't Mind
TTITLE4=Riverview Drive
TTITLE5=I've Got Eyes
TTITLE6=Ain't Gonna Worry 'Bout You
TTITLE7=You Ain't My Momma
TTITLE8=Money Shot
EXTD=
EXTT0=
EXTT1=
EXTT2=
EXTT3=
EXTT4=
EXTT5=
EXTT6=
EXTT7=
EXTT8=
PLAYORDER=
